<svg id="visual" viewBox="0 0 1920 1200" width="1920" height="1200" xmlns="http://www.w3.org/2000/svg" xmlns:xlink="http://www.w3.org/1999/xlink" version="1.1"><rect x="0" y="0" width="1920" height="1200" fill="#f2f2f2"></rect><defs><linearGradient id="grad1_0" x1="37.5%" y1="0%" x2="100%" y2="100%"><stop offset="17.999999999999996%" stop-color="#1e1e24" stop-opacity="1"></stop><stop offset="82%" stop-color="#1e1e24" stop-opacity="1"></stop></linearGradient></defs><defs><linearGradient id="grad1_1" x1="37.5%" y1="0%" x2="100%" y2="100%"><stop offset="17.999999999999996%" stop-color="#1e1e24" stop-opacity="1"></stop><stop offset="82%" stop-color="#38383d" stop-opacity="1"></stop></linearGradient></defs><defs><linearGradient id="grad1_2" x1="37.5%" y1="0%" x2="100%" y2="100%"><stop offset="17.999999999999996%" stop-color="#535358" stop-opacity="1"></stop><stop offset="82%" stop-color="#38383d" stop-opacity="1"></stop></linearGradient></defs><defs><linearGradient id="grad1_3" x1="37.5%" y1="0%" x2="100%" y2="100%"><stop offset="17.999999999999996%" stop-color="#535358" stop-opacity="1"></stop><stop offset="82%" stop-color="#707075" stop-opacity="1"></stop></linearGradient></defs><defs><linearGradient id="grad1_4" x1="37.5%" y1="0%" x2="100%" y2="100%"><stop offset="17.999999999999996%" stop-color="#8f8f92" stop-opacity="1"></stop><stop offset="82%" stop-color="#707075" stop-opacity="1"></stop></linearGradient></defs><defs><linearGradient id="grad1_5" x1="37.5%" y1="0%" x2="100%" y2="100%"><stop offset="17.999999999999996%" stop-color="#8f8f92" stop-opacity="1"></stop><stop offset="82%" stop-color="#afafb1" stop-opacity="1"></stop></linearGradient></defs><defs><linearGradient id="grad1_6" x1="37.5%" y1="0%" x2="100%" y2="100%"><stop offset="17.999999999999996%" stop-color="#d0d0d1" stop-opacity="1"></stop><stop offset="82%" stop-color="#afafb1" stop-opacity="1"></stop></linearGradient></defs><defs><linearGradient id="grad1_7" x1="37.5%" y1="0%" x2="100%" y2="100%"><stop offset="17.999999999999996%" stop-color="#d0d0d1" stop-opacity="1"></stop><stop offset="82%" stop-color="#f2f2f2" stop-opacity="1"></stop></linearGradient></defs><defs><linearGradient id="grad2_0" x1="0%" y1="0%" x2="62.5%" y2="100%"><stop offset="17.999999999999996%" stop-color="#1e1e24" stop-opacity="1"></stop><stop offset="82%" stop-color="#1e1e24" stop-opacity="1"></stop></linearGradient></defs><defs><linearGradient id="grad2_1" x1="0%" y1="0%" x2="62.5%" y2="100%"><stop offset="17.999999999999996%" stop-color="#38383d" stop-opacity="1"></stop><stop offset="82%" stop-color="#1e1e24" stop-opacity="1"></stop></linearGradient></defs><defs><linearGradient id="grad2_2" x1="0%" y1="0%" x2="62.5%" y2="100%"><stop offset="17.999999999999996%" stop-color="#38383d" stop-opacity="1"></stop><stop offset="82%" stop-color="#535358" stop-opacity="1"></stop></linearGradient></defs><defs><linearGradient id="grad2_3" x1="0%" y1="0%" x2="62.5%" y2="100%"><stop offset="17.999999999999996%" stop-color="#707075" stop-opacity="1"></stop><stop offset="82%" stop-color="#535358" stop-opacity="1"></stop></linearGradient></defs><defs><linearGradient id="grad2_4" x1="0%" y1="0%" x2="62.5%" y2="100%"><stop offset="17.999999999999996%" stop-color="#707075" stop-opacity="1"></stop><stop offset="82%" stop-color="#8f8f92" stop-opacity="1"></stop></linearGradient></defs><defs><linearGradient id="grad2_5" x1="0%" y1="0%" x2="62.5%" y2="100%"><stop offset="17.999999999999996%" stop-color="#afafb1" stop-opacity="1"></stop><stop offset="82%" stop-color="#8f8f92" stop-opacity="1"></stop></linearGradient></defs><defs><linearGradient id="grad2_6" x1="0%" y1="0%" x2="62.5%" y2="100%"><stop offset="17.999999999999996%" stop-color="#afafb1" stop-opacity="1"></stop><stop offset="82%" stop-color="#d0d0d1" stop-opacity="1"></stop></linearGradient></defs><defs><linearGradient id="grad2_7" x1="0%" y1="0%" x2="62.5%" y2="100%"><stop offset="17.999999999999996%" stop-color="#f2f2f2" stop-opacity="1"></stop><stop offset="82%" stop-color="#d0d0d1" stop-opacity="1"></stop></linearGradient></defs><g transform="translate(1920, 0)"><path d="M0 1132.1C-209.8 1109.3 -419.7 1086.5 -566 980.4C-712.4 874.3 -795.3 684.8 -879 507.5C-962.8 330.2 -1047.4 165.1 -1132.1 0L0 0Z" fill="#e1e1e1"></path><path d="M0 990.6C-183.6 970.6 -367.2 950.7 -495.3 857.9C-623.3 765 -695.9 599.2 -769.1 444.1C-842.4 288.9 -916.5 144.5 -990.6 0L0 0Z" fill="#bfbfc1"></path><path d="M0 849.1C-157.4 832 -314.8 814.9 -424.5 735.3C-534.3 655.7 -596.4 513.6 -659.3 380.6C-722.1 247.7 -785.6 123.8 -849.1 0L0 0Z" fill="#9f9fa2"></path><path d="M0 707.5C-131.2 693.3 -262.3 679.1 -353.8 612.8C-445.2 546.4 -497 428 -549.4 317.2C-601.7 206.4 -654.6 103.2 -707.5 0L0 0Z" fill="#807f83"></path><path d="M0 566C-104.9 554.7 -209.8 543.3 -283 490.2C-356.2 437.1 -397.6 342.4 -439.5 253.8C-481.4 165.1 -523.7 82.6 -566 0L0 0Z" fill="#626166"></path><path d="M0 424.5C-78.7 416 -157.4 407.5 -212.3 367.7C-267.1 327.9 -298.2 256.8 -329.6 190.3C-361 123.8 -392.8 61.9 -424.5 0L0 0Z" fill="#45454a"></path><path d="M0 283C-52.5 277.3 -104.9 271.6 -141.5 245.1C-178.1 218.6 -198.8 171.2 -219.8 126.9C-240.7 82.6 -261.9 41.3 -283 0L0 0Z" fill="#2b2a30"></path><path d="M0 141.5C-26.2 138.7 -52.5 135.8 -70.8 122.6C-89 109.3 -99.4 85.6 -109.9 63.4C-120.3 41.3 -130.9 20.6 -141.5 0L0 0Z" fill="#1e1e24"></path></g><g transform="translate(0, 1200)"><path d="M0 -1132.1C175.5 -1065.4 351 -998.8 527 -912.8C703 -826.8 879.5 -721.4 980.4 -566C1081.3 -410.7 1106.7 -205.3 1132.1 0L0 0Z" fill="#e1e1e1"></path><path d="M0 -990.6C153.6 -932.3 307.1 -874 461.1 -798.7C615.1 -723.4 769.5 -631.2 857.9 -495.3C946.2 -359.3 968.4 -179.7 990.6 0L0 0Z" fill="#bfbfc1"></path><path d="M0 -849.1C131.6 -799.1 263.3 -749.1 395.2 -684.6C527.2 -620.1 659.6 -541 735.3 -424.5C811 -308 830 -154 849.1 0L0 0Z" fill="#9f9fa2"></path><path d="M0 -707.5C109.7 -665.9 219.4 -624.3 329.4 -570.5C439.4 -516.7 549.7 -450.9 612.8 -353.8C675.8 -256.7 691.7 -128.3 707.5 0L0 0Z" fill="#807f83"></path><path d="M0 -566C87.8 -532.7 175.5 -499.4 263.5 -456.4C351.5 -413.4 439.7 -360.7 490.2 -283C540.7 -205.3 553.4 -102.7 566 0L0 0Z" fill="#626166"></path><path d="M0 -424.5C65.8 -399.5 131.6 -374.6 197.6 -342.3C263.6 -310 329.8 -270.5 367.7 -212.3C405.5 -154 415 -77 424.5 0L0 0Z" fill="#45454a"></path><path d="M0 -283C43.9 -266.4 87.8 -249.7 131.7 -228.2C175.7 -206.7 219.9 -180.3 245.1 -141.5C270.3 -102.7 276.7 -51.3 283 0L0 0Z" fill="#2b2a30"></path><path d="M0 -141.5C21.9 -133.2 43.9 -124.9 65.9 -114.1C87.9 -103.3 109.9 -90.2 122.6 -70.8C135.2 -51.3 138.3 -25.7 141.5 0L0 0Z" fill="#1e1e24"></path></g></svg>