<svg id="visual" viewBox="0 0 1920 1200" width="1920" height="1200" xmlns="http://www.w3.org/2000/svg" xmlns:xlink="http://www.w3.org/1999/xlink" version="1.1"><rect x="0" y="0" width="1920" height="1200" fill="#f2f2f2"></rect><defs><linearGradient id="grad1_0" x1="37.5%" y1="0%" x2="100%" y2="100%"><stop offset="17.999999999999996%" stop-color="#1e1e24" stop-opacity="1"></stop><stop offset="82%" stop-color="#1e1e24" stop-opacity="1"></stop></linearGradient></defs><defs><linearGradient id="grad1_1" x1="37.5%" y1="0%" x2="100%" y2="100%"><stop offset="17.999999999999996%" stop-color="#1e1e24" stop-opacity="1"></stop><stop offset="82%" stop-color="#38383d" stop-opacity="1"></stop></linearGradient></defs><defs><linearGradient id="grad1_2" x1="37.5%" y1="0%" x2="100%" y2="100%"><stop offset="17.999999999999996%" stop-color="#535358" stop-opacity="1"></stop><stop offset="82%" stop-color="#38383d" stop-opacity="1"></stop></linearGradient></defs><defs><linearGradient id="grad1_3" x1="37.5%" y1="0%" x2="100%" y2="100%"><stop offset="17.999999999999996%" stop-color="#535358" stop-opacity="1"></stop><stop offset="82%" stop-color="#707075" stop-opacity="1"></stop></linearGradient></defs><defs><linearGradient id="grad1_4" x1="37.5%" y1="0%" x2="100%" y2="100%"><stop offset="17.999999999999996%" stop-color="#8f8f92" stop-opacity="1"></stop><stop offset="82%" stop-color="#707075" stop-opacity="1"></stop></linearGradient></defs><defs><linearGradient id="grad1_5" x1="37.5%" y1="0%" x2="100%" y2="100%"><stop offset="17.999999999999996%" stop-color="#8f8f92" stop-opacity="1"></stop><stop offset="82%" stop-color="#afafb1" stop-opacity="1"></stop></linearGradient></defs><defs><linearGradient id="grad1_6" x1="37.5%" y1="0%" x2="100%" y2="100%"><stop offset="17.999999999999996%" stop-color="#d0d0d1" stop-opacity="1"></stop><stop offset="82%" stop-color="#afafb1" stop-opacity="1"></stop></linearGradient></defs><defs><linearGradient id="grad1_7" x1="37.5%" y1="0%" x2="100%" y2="100%"><stop offset="17.999999999999996%" stop-color="#d0d0d1" stop-opacity="1"></stop><stop offset="82%" stop-color="#f2f2f2" stop-opacity="1"></stop></linearGradient></defs><defs><linearGradient id="grad2_0" x1="0%" y1="0%" x2="62.5%" y2="100%"><stop offset="17.999999999999996%" stop-color="#1e1e24" stop-opacity="1"></stop><stop offset="82%" stop-color="#1e1e24" stop-opacity="1"></stop></linearGradient></defs><defs><linearGradient id="grad2_1" x1="0%" y1="0%" x2="62.5%" y2="100%"><stop offset="17.999999999999996%" stop-color="#38383d" stop-opacity="1"></stop><stop offset="82%" stop-color="#1e1e24" stop-opacity="1"></stop></linearGradient></defs><defs><linearGradient id="grad2_2" x1="0%" y1="0%" x2="62.5%" y2="100%"><stop offset="17.999999999999996%" stop-color="#38383d" stop-opacity="1"></stop><stop offset="82%" stop-color="#535358" stop-opacity="1"></stop></linearGradient></defs><defs><linearGradient id="grad2_3" x1="0%" y1="0%" x2="62.5%" y2="100%"><stop offset="17.999999999999996%" stop-color="#707075" stop-opacity="1"></stop><stop offset="82%" stop-color="#535358" stop-opacity="1"></stop></linearGradient></defs><defs><linearGradient id="grad2_4" x1="0%" y1="0%" x2="62.5%" y2="100%"><stop offset="17.999999999999996%" stop-color="#707075" stop-opacity="1"></stop><stop offset="82%" stop-color="#8f8f92" stop-opacity="1"></stop></linearGradient></defs><defs><linearGradient id="grad2_5" x1="0%" y1="0%" x2="62.5%" y2="100%"><stop offset="17.999999999999996%" stop-color="#afafb1" stop-opacity="1"></stop><stop offset="82%" stop-color="#8f8f92" stop-opacity="1"></stop></linearGradient></defs><defs><linearGradient id="grad2_6" x1="0%" y1="0%" x2="62.5%" y2="100%"><stop offset="17.999999999999996%" stop-color="#afafb1" stop-opacity="1"></stop><stop offset="82%" stop-color="#d0d0d1" stop-opacity="1"></stop></linearGradient></defs><defs><linearGradient id="grad2_7" x1="0%" y1="0%" x2="62.5%" y2="100%"><stop offset="17.999999999999996%" stop-color="#f2f2f2" stop-opacity="1"></stop><stop offset="82%" stop-color="#d0d0d1" stop-opacity="1"></stop></linearGradient></defs><g transform="translate(1920, 0)"><path d="M0 962.3C-79.7 839.1 -159.4 715.9 -284.7 687.4C-410 658.8 -580.8 724.8 -680.4 680.4C-780 636 -808.4 481.2 -843.5 349.4C-878.6 217.6 -920.4 108.8 -962.3 0L0 0Z" fill="#e1e1e1"></path><path d="M0 842C-69.8 734.2 -139.5 626.4 -249.1 601.4C-358.7 576.4 -508.2 634.2 -595.4 595.4C-682.5 556.5 -707.3 421 -738.1 305.7C-768.8 190.4 -805.4 95.2 -842 0L0 0Z" fill="#bfbfc1"></path><path d="M0 721.7C-59.8 629.3 -119.6 537 -213.5 515.5C-307.5 494.1 -435.6 543.6 -510.3 510.3C-585 477 -606.3 360.9 -632.6 262C-659 163.2 -690.3 81.6 -721.7 0L0 0Z" fill="#9f9fa2"></path><path d="M0 601.4C-49.8 524.4 -99.7 447.5 -177.9 429.6C-256.2 411.7 -363 453 -425.3 425.3C-487.5 397.5 -505.2 300.7 -527.2 218.4C-549.1 136 -575.3 68 -601.4 0L0 0Z" fill="#807f83"></path><path d="M0 481.1C-39.9 419.6 -79.7 358 -142.4 343.7C-205 329.4 -290.4 362.4 -340.2 340.2C-390 318 -404.2 240.6 -421.8 174.7C-439.3 108.8 -460.2 54.4 -481.1 0L0 0Z" fill="#626166"></path><path d="M0 360.8C-29.9 314.7 -59.8 268.5 -106.8 257.8C-153.7 247 -217.8 271.8 -255.2 255.2C-292.5 238.5 -303.1 180.4 -316.3 131C-329.5 81.6 -345.2 40.8 -360.8 0L0 0Z" fill="#45454a"></path><path d="M0 240.6C-19.9 209.8 -39.9 179 -71.2 171.8C-102.5 164.7 -145.2 181.2 -170.1 170.1C-195 159 -202.1 120.3 -210.9 87.3C-219.7 54.4 -230.1 27.2 -240.6 0L0 0Z" fill="#2b2a30"></path><path d="M0 120.3C-10 104.9 -19.9 89.5 -35.6 85.9C-51.2 82.3 -72.6 90.6 -85.1 85.1C-97.5 79.5 -101 60.1 -105.4 43.7C-109.8 27.2 -115.1 13.6 -120.3 0L0 0Z" fill="#1e1e24"></path></g><g transform="translate(0, 1200)"><path d="M0 -962.3C107.4 -878.8 214.7 -795.4 301.9 -728.9C389.1 -662.5 456.2 -612.9 562.9 -562.9C669.5 -512.8 815.8 -462.1 889 -368.2C962.2 -274.3 962.2 -137.2 962.3 0L0 0Z" fill="#e1e1e1"></path><path d="M0 -842C93.9 -769 187.9 -696 264.2 -637.8C340.5 -579.7 399.2 -536.3 492.5 -492.5C585.8 -448.7 713.9 -404.4 777.9 -322.2C841.9 -240 842 -120 842 0L0 0Z" fill="#bfbfc1"></path><path d="M0 -721.7C80.5 -659.1 161.1 -596.6 226.5 -546.7C291.9 -496.8 342.1 -459.7 422.1 -422.1C502.1 -384.6 611.9 -346.6 666.8 -276.2C721.6 -205.8 721.7 -102.9 721.7 0L0 0Z" fill="#9f9fa2"></path><path d="M0 -601.4C67.1 -549.3 134.2 -497.1 188.7 -455.6C243.2 -414 285.1 -383.1 351.8 -351.8C418.5 -320.5 509.9 -288.8 555.6 -230.2C601.4 -171.5 601.4 -85.7 601.4 0L0 0Z" fill="#807f83"></path><path d="M0 -481.1C53.7 -439.4 107.4 -397.7 151 -364.5C194.6 -331.2 228.1 -306.5 281.4 -281.4C334.8 -256.4 407.9 -231.1 444.5 -184.1C481.1 -137.2 481.1 -68.6 481.1 0L0 0Z" fill="#626166"></path><path d="M0 -360.8C40.3 -329.6 80.5 -298.3 113.2 -273.4C145.9 -248.4 171.1 -229.9 211.1 -211.1C251.1 -192.3 305.9 -173.3 333.4 -138.1C360.8 -102.9 360.8 -51.4 360.8 0L0 0Z" fill="#45454a"></path><path d="M0 -240.6C26.8 -219.7 53.7 -198.9 75.5 -182.2C97.3 -165.6 114 -153.2 140.7 -140.7C167.4 -128.2 204 -115.5 222.3 -92.1C240.5 -68.6 240.6 -34.3 240.6 0L0 0Z" fill="#2b2a30"></path><path d="M0 -120.3C13.4 -109.9 26.8 -99.4 37.7 -91.1C48.6 -82.8 57 -76.6 70.4 -70.4C83.7 -64.1 102 -57.8 111.1 -46C120.3 -34.3 120.3 -17.1 120.3 0L0 0Z" fill="#1e1e24"></path></g></svg>