<svg id="visual" viewBox="0 0 1920 1080" width="1920" height="1080" xmlns="http://www.w3.org/2000/svg" xmlns:xlink="http://www.w3.org/1999/xlink" version="1.1"><rect x="0" y="0" width="1920" height="1080" fill="#1e1e24"></rect><defs><linearGradient id="grad1_0" x1="43.8%" y1="0%" x2="100%" y2="100%"><stop offset="14.444444444444446%" stop-color="#fb9f89" stop-opacity="1"></stop><stop offset="85.55555555555554%" stop-color="#fb9f89" stop-opacity="1"></stop></linearGradient></defs><defs><linearGradient id="grad1_1" x1="43.8%" y1="0%" x2="100%" y2="100%"><stop offset="14.444444444444446%" stop-color="#fb9f89" stop-opacity="1"></stop><stop offset="85.55555555555554%" stop-color="#d07e85" stop-opacity="1"></stop></linearGradient></defs><defs><linearGradient id="grad1_2" x1="43.8%" y1="0%" x2="100%" y2="100%"><stop offset="14.444444444444446%" stop-color="#9e6479" stop-opacity="1"></stop><stop offset="85.55555555555554%" stop-color="#d07e85" stop-opacity="1"></stop></linearGradient></defs><defs><linearGradient id="grad1_3" x1="43.8%" y1="0%" x2="100%" y2="100%"><stop offset="14.444444444444446%" stop-color="#9e6479" stop-opacity="1"></stop><stop offset="85.55555555555554%" stop-color="#6c4d64" stop-opacity="1"></stop></linearGradient></defs><defs><linearGradient id="grad1_4" x1="43.8%" y1="0%" x2="100%" y2="100%"><stop offset="14.444444444444446%" stop-color="#3f3646" stop-opacity="1"></stop><stop offset="85.55555555555554%" stop-color="#6c4d64" stop-opacity="1"></stop></linearGradient></defs><defs><linearGradient id="grad1_5" x1="43.8%" y1="0%" x2="100%" y2="100%"><stop offset="14.444444444444446%" stop-color="#3f3646" stop-opacity="1"></stop><stop offset="85.55555555555554%" stop-color="#1e1e24" stop-opacity="1"></stop></linearGradient></defs><defs><linearGradient id="grad2_0" x1="0%" y1="0%" x2="56.3%" y2="100%"><stop offset="14.444444444444446%" stop-color="#fb9f89" stop-opacity="1"></stop><stop offset="85.55555555555554%" stop-color="#fb9f89" stop-opacity="1"></stop></linearGradient></defs><defs><linearGradient id="grad2_1" x1="0%" y1="0%" x2="56.3%" y2="100%"><stop offset="14.444444444444446%" stop-color="#d07e85" stop-opacity="1"></stop><stop offset="85.55555555555554%" stop-color="#fb9f89" stop-opacity="1"></stop></linearGradient></defs><defs><linearGradient id="grad2_2" x1="0%" y1="0%" x2="56.3%" y2="100%"><stop offset="14.444444444444446%" stop-color="#d07e85" stop-opacity="1"></stop><stop offset="85.55555555555554%" stop-color="#9e6479" stop-opacity="1"></stop></linearGradient></defs><defs><linearGradient id="grad2_3" x1="0%" y1="0%" x2="56.3%" y2="100%"><stop offset="14.444444444444446%" stop-color="#6c4d64" stop-opacity="1"></stop><stop offset="85.55555555555554%" stop-color="#9e6479" stop-opacity="1"></stop></linearGradient></defs><defs><linearGradient id="grad2_4" x1="0%" y1="0%" x2="56.3%" y2="100%"><stop offset="14.444444444444446%" stop-color="#6c4d64" stop-opacity="1"></stop><stop offset="85.55555555555554%" stop-color="#3f3646" stop-opacity="1"></stop></linearGradient></defs><defs><linearGradient id="grad2_5" x1="0%" y1="0%" x2="56.3%" y2="100%"><stop offset="14.444444444444446%" stop-color="#1e1e24" stop-opacity="1"></stop><stop offset="85.55555555555554%" stop-color="#3f3646" stop-opacity="1"></stop></linearGradient></defs><g transform="translate(1920, 0)"><path d="M0 810C-97.9 784.6 -195.7 759.1 -300.8 726.2C-405.9 693.2 -518.2 652.8 -572.8 572.8C-627.3 492.7 -624.2 373 -654.1 270.9C-684 168.9 -747 84.4 -810 0L0 0Z" fill="#2d2a35"></path><path d="M0 675C-81.5 653.8 -163.1 632.6 -250.7 605.1C-338.2 577.7 -431.8 544 -477.3 477.3C-522.8 410.6 -520.2 310.8 -545.1 225.8C-570 140.7 -622.5 70.4 -675 0L0 0Z" fill="#544156"></path><path d="M0 540C-65.2 523 -130.5 506.1 -200.5 484.1C-270.6 462.2 -345.5 435.2 -381.8 381.8C-418.2 328.5 -416.1 248.7 -436.1 180.6C-456 112.6 -498 56.3 -540 0L0 0Z" fill="#84586f"></path><path d="M0 405C-48.9 392.3 -97.9 379.6 -150.4 363.1C-202.9 346.6 -259.1 326.4 -286.4 286.4C-313.7 246.3 -312.1 186.5 -327.1 135.5C-342 84.4 -373.5 42.2 -405 0L0 0Z" fill="#b77180"></path><path d="M0 270C-32.6 261.5 -65.2 253 -100.3 242.1C-135.3 231.1 -172.7 217.6 -190.9 190.9C-209.1 164.2 -208.1 124.3 -218 90.3C-228 56.3 -249 28.1 -270 0L0 0Z" fill="#e68e87"></path><path d="M0 135C-16.3 130.8 -32.6 126.5 -50.1 121C-67.6 115.5 -86.4 108.8 -95.5 95.5C-104.6 82.1 -104 62.2 -109 45.2C-114 28.1 -124.5 14.1 -135 0L0 0Z" fill="#fb9f89"></path></g><g transform="translate(0, 1080)"><path d="M0 -810C103.8 -799.7 207.5 -789.4 310 -748.3C412.4 -707.3 513.6 -635.6 538.8 -538.8C564.1 -442 513.5 -320.1 546 -226.2C578.6 -132.2 694.3 -66.1 810 0L0 0Z" fill="#2d2a35"></path><path d="M0 -675C86.5 -666.4 172.9 -657.8 258.3 -623.6C343.7 -589.4 428 -529.7 449 -449C470.1 -368.4 427.9 -266.8 455 -188.5C482.1 -110.2 578.6 -55.1 675 0L0 0Z" fill="#544156"></path><path d="M0 -540C69.2 -533.1 138.4 -526.2 206.6 -498.9C274.9 -471.5 342.4 -423.7 359.2 -359.2C376.1 -294.7 342.3 -213.4 364 -150.8C385.7 -88.1 462.9 -44.1 540 0L0 0Z" fill="#84586f"></path><path d="M0 -405C51.9 -399.8 103.8 -394.7 155 -374.2C206.2 -353.7 256.8 -317.8 269.4 -269.4C282 -221 256.7 -160.1 273 -113.1C289.3 -66.1 347.1 -33 405 0L0 0Z" fill="#b77180"></path><path d="M0 -270C34.6 -266.6 69.2 -263.1 103.3 -249.4C137.5 -235.8 171.2 -211.9 179.6 -179.6C188 -147.3 171.2 -106.7 182 -75.4C192.9 -44.1 231.4 -22 270 0L0 0Z" fill="#e68e87"></path><path d="M0 -135C17.3 -133.3 34.6 -131.6 51.7 -124.7C68.7 -117.9 85.6 -105.9 89.8 -89.8C94 -73.7 85.6 -53.4 91 -37.7C96.4 -22 115.7 -11 135 0L0 0Z" fill="#fb9f89"></path></g></svg>